<?xml version="1.0" encoding="UTF-8" standalone="no"?>
<svg
   xmlns:dc="http://purl.org/dc/elements/1.1/"
   xmlns:cc="http://creativecommons.org/ns#"
   xmlns:rdf="http://www.w3.org/1999/02/22-rdf-syntax-ns#"
   xmlns:svg="http://www.w3.org/2000/svg"
   xmlns="http://www.w3.org/2000/svg"
   xmlns:sodipodi="http://sodipodi.sourceforge.net/DTD/sodipodi-0.dtd"
   xmlns:inkscape="http://www.inkscape.org/namespaces/inkscape"
   width="96.846mm"
   height="77.223mm"
   version="1.1"
   viewBox="0 0 96.846 77.223"
   id="svg18"
   sodipodi:docname="JokeFactory.svg"
   inkscape:version="1.0.2-2 (e86c870879, 2021-01-15)">
  <defs
     id="defs22">
    <filter
       style="color-interpolation-filters:sRGB;"
       inkscape:label="Drop Shadow"
       id="filter603">
      <feFlood
         flood-opacity="0.498039"
         flood-color="rgb(0,0,0)"
         result="flood"
         id="feFlood593" />
      <feComposite
         in="flood"
         in2="SourceGraphic"
         operator="out"
         result="composite1"
         id="feComposite595" />
      <feGaussianBlur
         in="composite1"
         stdDeviation="0.1"
         result="blur"
         id="feGaussianBlur597" />
      <feOffset
         dx="0.5"
         dy="0.5"
         result="offset"
         id="feOffset599" />
      <feComposite
         in="offset"
         in2="SourceGraphic"
         operator="atop"
         result="composite2"
         id="feComposite601" />
    </filter>
  </defs>
  <sodipodi:namedview
     pagecolor="#ffffff"
     bordercolor="#666666"
     borderopacity="1"
     objecttolerance="10"
     gridtolerance="10"
     guidetolerance="10"
     inkscape:pageopacity="0"
     inkscape:pageshadow="2"
     inkscape:window-width="1920"
     inkscape:window-height="1027"
     id="namedview20"
     showgrid="false"
     inkscape:zoom="0.89034466"
     inkscape:cx="184.07132"
     inkscape:cy="112.87168"
     inkscape:window-x="760"
     inkscape:window-y="214"
     inkscape:window-maximized="1"
     inkscape:current-layer="svg18"
     inkscape:document-rotation="0" />
  <metadata
     id="metadata2">
    <rdf:RDF>
      <cc:Work
         rdf:about="">
        <dc:format>image/svg+xml</dc:format>
        <dc:type
           rdf:resource="http://purl.org/dc/dcmitype/StillImage" />
        <dc:title />
      </cc:Work>
    </rdf:RDF>
  </metadata>
  <text
     x="-55.03986"
     y="-55.572815"
     font-family="sans-serif"
     font-size="10.583px"
     letter-spacing="1.0451px"
     style="line-height:0.9;shape-inside:url(#rect835);white-space:pre;"
     xml:space="preserve"
     id="text4" />
  <g
     id="g111"
     style="filter:url(#filter603)">
    <path
       d="m 58.462,43.2805 5.1,2.5424 c 1.5285,0.87775 2.1944,2.7392 1.589,4.4039 -1.3469,3.6623 -3.9953,7.022 -6.4469,9.9579 -1.1199,1.3469 -3.057,1.6798 -4.5855,0.80207 l -4.4039,-2.5424 c -2.4214,2.0733 -5.2362,3.7228 -8.3083,4.7973 v 5.0849 c 0,1.7555 -1.2561,3.2688 -2.9813,3.5715 -3.7229,0.63561 -7.6273,0.66588 -11.486,0 -1.7404,-0.30267 -3.0267,-1.8009 -3.0267,-3.5715 v -5.0849 c -3.0721,-1.0896 -5.887,-2.724 -8.3083,-4.7973 l -4.4039,2.5273 c -1.5134,0.87775 -3.4656,0.54481 -4.5855,-0.80208 -2.4516,-2.9359 -5.0395,-6.2956 -6.3864,-9.9427 -0.60534,-1.6496 0.0605,-3.511 1.589,-4.4039 l 5.0395,-2.5424 c -0.59021,-3.1629 -0.59021,-6.4166 0,-9.5947 l -5.0395,-2.5576 c -1.5285,-0.87774 -2.2095,-2.7392 -1.589,-4.3887 1.3469,-3.6623 3.9347,-7.022 6.3864,-9.9579 1.1199,-1.3469 3.057,-1.6798 4.5855,-0.80208 l 4.4039,2.5424 c 2.4214,-2.0733 5.2362,-3.7229 8.3083,-4.7973 v -5.1 c 0,-1.7404 1.241,-3.2537 2.9662,-3.5564 3.7228,-0.63561 7.6424,-0.66587 11.502,-0.0151 1.7404,0.30267 3.0267,1.8009 3.0267,3.5715 v 5.0849 c 3.0721,1.0896 5.8869,2.724 8.3083,4.7973 l 4.4039,-2.5424 c 1.5134,-0.87774 3.4656,-0.5448 4.5855,0.80209 2.4516,2.9359 5.0243,6.2956 6.3712,9.9579 0.60535,1.6496 0.0152,3.511 -1.5134,4.4039 l -5.1,2.5424 c 0.59021,3.178 0.59021,6.4318 0,9.6098 z m -17.797,3.1932 c 8.9591,-11.653 -4.3433,-24.955 -15.996,-15.996 -8.9591,11.653 4.3433,24.955 15.996,15.996 z"
       fill="#a9b4c2"
       id="path6"
       sodipodi:nodetypes="cccccccsccsccccccccccccccsccscccccccccccc" />
    <path
       d="m 37.775618,34.439617 1.78827,-2.14486 c 0.457713,-0.548189 -0.202244,-1.319913 -0.819623,-0.958001 l -4.257785,2.554671 c -0.415134,0.250145 -0.415134,0.846235 0,1.096379 l 4.257785,2.554671 c 0.612056,0.361912 1.277336,-0.404489 0.819623,-0.958001 z m -11.144752,3.10286 4.257785,-2.554671 c 0.415134,-0.250144 0.415134,-0.846234 0,-1.096379 l -4.257785,-2.554671 c -0.617379,-0.367234 -1.277335,0.409812 -0.819623,0.958001 l 1.788269,2.14486 -1.788269,2.144859 c -0.463035,0.553512 0.202244,1.319913 0.819623,0.958001 z m 12.145332,1.793592 H 26.598933 c -0.436423,0 -0.771724,0.372557 -0.718501,0.798335 0.399167,3.150761 3.134794,5.588343 6.445221,5.588343 h 0.723824 c 3.310428,0 6.046055,-2.437582 6.445223,-5.588343 0.05322,-0.425778 -0.282079,-0.798335 -0.718502,-0.798335 z"
       id="path28"
       style="fill:#a9b4c2;fill-opacity:1;stroke-width:0.0532224"
       sodipodi:nodetypes="ccccccccccccccccsscsscs" />
    <path
       d="m 80.91079,13.359141 -0.127792,-1.409499 c -0.03242,-0.360483 -0.545488,-0.400535 -0.637041,-0.04959 l -0.610336,2.441351 c -0.05913,0.238411 0.154492,0.45203 0.392905,0.392904 l 2.44135,-0.610335 c 0.349037,-0.08964 0.312802,-0.602714 -0.04959,-0.637043 z m -2.881941,5.105861 0.610335,-2.44135 c 0.05913,-0.238413 -0.154493,-0.452031 -0.392904,-0.392905 l -2.441351,0.610336 c -0.352856,0.08965 -0.310896,0.604619 0.04959,0.637042 l 1.409499,0.127791 0.127791,1.409499 c 0.03242,0.364295 0.545488,0.400535 0.637043,0.04959 z m 4.995233,-3.709709 -4.363916,4.363916 c -0.156402,0.156402 -0.143049,0.410072 0.02861,0.543585 1.272174,0.986079 3.126079,0.879267 4.312423,-0.307077 l 0.259395,-0.259395 c 1.186343,-1.186344 1.293151,-3.040243 0.307077,-4.312423 -0.133528,-0.171641 -0.387183,-0.185009 -0.543586,-0.02861 z"
       id="path28-6"
       style="fill:#a9b4c2;fill-opacity:1;stroke-width:0.0269734"
       sodipodi:nodetypes="ccccccccccccccccsscsscs" />
    <path
       d="m 77.5,74.1227 -1.241,2.1641 c -0.45401,0.80208 -1.4226,1.135 -2.2852,0.81722 -1.7858,-0.66588 -3.4202,-1.6193 -4.8579,-2.8148 -0.69614,-0.57507 -0.87775,-1.589 -0.42374,-2.376 l 1.241,-2.1641 c -1.0442,-1.2107 -1.8614,-2.6181 -2.4062,-4.1466 h -2.497 c -0.90801,0 -1.695,-0.65075 -1.8463,-1.5588 -0.30268,-1.816 -0.31781,-3.7229 0,-5.6146 0.15133,-0.90801 0.93828,-1.5739 1.8463,-1.5739 h 2.497 c 0.5448,-1.5285 1.362,-2.9359 2.4062,-4.1466 l -1.241,-2.1641 c -0.45401,-0.78695 -0.28753,-1.8009 0.42374,-2.376 1.4377,-1.1956 3.0872,-2.149 4.8579,-2.8148 0.86262,-0.31781 1.8312,0.0152 2.2852,0.81721 l 1.241,2.1641 c 1.589,-0.28754 3.2083,-0.28754 4.7973,0 l 1.241,-2.1641 c 0.45401,-0.80207 1.4226,-1.135 2.2852,-0.81721 1.7858,0.66587 3.4202,1.6193 4.8579,2.8148 0.69615,0.57507 0.87775,1.589 0.42375,2.376 l -1.241,2.1641 c 1.0442,1.2107 1.8614,2.6181 2.4062,4.1466 h 2.497 c 0.90802,0 1.695,0.65074 1.8463,1.5588 0.30267,1.816 0.3178,3.7228 0,5.6146 -0.15133,0.90801 -0.93828,1.5739 -1.8463,1.5739 h -2.497 c -0.54481,1.5285 -1.362,2.9359 -2.4062,4.1466 l 1.241,2.1641 c 0.454,0.78695 0.28753,1.8009 -0.42375,2.376 -1.4377,1.1956 -3.0872,2.149 -4.8579,2.8148 -0.86261,0.3178 -1.8312,-0.0152 -2.2852,-0.81722 l -1.241,-2.1641 c -1.5739,0.28754 -3.2083,0.28754 -4.7973,0 z M 75.911,65.209 c 5.8264,4.4795 12.47,-2.1641 7.9905,-7.9905 -5.8264,-4.4795 -12.47,2.1641 -7.9905,7.9905 z"
       fill="#a9b4c2"
       id="path99"
       style="fill:#a9b4c2;fill-opacity:1"
       sodipodi:nodetypes="cccccccsccsccccccccccccccsccsccccccccccc" />
    <path
       d="m 77.5,28.888 -1.241,2.1641 c -0.45401,0.80207 -1.4226,1.135 -2.2852,0.81721 -1.7858,-0.66588 -3.4202,-1.6193 -4.8579,-2.8148 -0.69614,-0.57508 -0.87775,-1.589 -0.42374,-2.376 l 1.241,-2.1641 c -1.0442,-1.2107 -1.8614,-2.6181 -2.4062,-4.1466 h -2.497 c -0.90801,0 -1.695,-0.65074 -1.8463,-1.5588 -0.30268,-1.816 -0.31781,-3.7229 0,-5.6146 0.15133,-0.90802 0.93828,-1.5739 1.8463,-1.5739 h 2.497 c 0.5448,-1.5285 1.362,-2.9359 2.4062,-4.1466 l -1.241,-2.1641 c -0.45401,-0.78694 -0.28753,-1.8009 0.42374,-2.376 1.4377,-1.1956 3.0872,-2.149 4.8579,-2.8148 0.86262,-0.3178 1.8312,0.0151 2.2852,0.81721 l 1.241,2.1641 c 1.589,-0.28754 3.2083,-0.28754 4.7973,0 l 1.241,-2.1641 c 0.45401,-0.80207 1.4226,-1.135 2.2852,-0.81721 1.7858,0.66588 3.4202,1.6193 4.8579,2.8148 0.69615,0.57508 0.87775,1.589 0.42375,2.376 l -1.241,2.1641 c 1.0442,1.2107 1.8614,2.6181 2.4062,4.1466 h 2.497 c 0.90802,0 1.695,0.65074 1.8463,1.5588 0.30267,1.816 0.3178,3.7229 0,5.6146 -0.15133,0.90802 -0.93828,1.5739 -1.8463,1.5739 h -2.497 c -0.54481,1.5285 -1.362,2.9359 -2.4062,4.1466 l 1.241,2.1641 c 0.454,0.78694 0.28753,1.8009 -0.42375,2.376 -1.4377,1.1956 -3.0872,2.149 -4.8579,2.8148 -0.86261,0.3178 -1.8312,-0.0152 -2.2852,-0.81721 l -1.241,-2.1641 c -1.5739,0.28754 -3.2083,0.28754 -4.7973,0 z m -1.589,-8.8985 c 5.8264,4.4795 12.47,-2.1641 7.9905,-7.9905 -5.8264,-4.4947 -12.47,2.1641 -7.9905,7.9905 z"
       fill="#a9b4c2"
       id="path101"
       style="fill:#a9b4c2;fill-opacity:1"
       sodipodi:nodetypes="cccccccsccsccccccccccccccsccsccccccccccc" />
    <path
       d="m 77.319438,63.277679 -0.906304,1.087029 c -0.231975,0.277824 0.102498,0.668939 0.415391,0.485521 l 2.157868,-1.294723 c 0.210394,-0.126771 0.210392,-0.428876 0,-0.555651 l -2.157867,-1.294723 c -0.310192,-0.183421 -0.647368,0.204999 -0.415392,0.485523 z M 82.967667,61.70513 80.8098,62.999853 c -0.210395,0.126772 -0.210391,0.428877 -10e-7,0.555651 l 2.157869,1.294723 c 0.312899,0.186115 0.647367,-0.207694 0.415391,-0.485522 l -0.906304,-1.087028 0.906304,-1.087029 c 0.234671,-0.280519 -0.102497,-0.668939 -0.415392,-0.485522 z m -6.155324,-0.909003 h 6.17151 c 0.221186,0 0.391115,-0.188814 0.364142,-0.404603 -0.2023,-1.596826 -1.588736,-2.832207 -3.26648,-2.832207 h -0.36684 c -1.677743,10e-7 -3.064172,1.23538 -3.266479,2.832207 -0.02695,0.215787 0.142958,0.404601 0.364143,0.404604 z"
       id="path103"
       style="fill:#a9b4c2;fill-opacity:1;stroke-width:0.0269734"
       sodipodi:nodetypes="ccccccccccccccccsscsscs" />
  </g>
  <g
     aria-label=" Joke  Factory"
     id="text16"
     style="font-weight:bold;font-size:10.583px;line-height:0.9;font-family:Ubuntu;font-variant-ligatures:normal;font-variant-caps:normal;font-variant-numeric:normal;font-variant-east-asian:normal;letter-spacing:1.0451px;white-space:pre;shape-inside:url(#rect102);stroke:#000000"
     transform="translate(44.316223,35.166698)">
    <path
       d="m -13.519388,-5.2606738 q 0,1.151478 -0.270936,2.1674879 -0.248358,1.01601 -0.90312,1.783662 -0.632184,0.74507392 -1.738506,1.1966339 -1.083744,0.42898199 -2.754516,0.42898199 -1.535304,0 -2.641626,-0.36124799 -1.106321,-0.38382598 -1.828817,-0.88054196 l 1.174056,-2.73193794 q 0.654761,0.383826 1.399835,0.67734 0.745074,0.293514 1.625616,0.293514 1.286946,0 1.851396,-0.632184 0.56445,-0.6321839 0.56445,-2.1223319 V -15.646553 h 3.522168 z"
       style="font-weight:bold;font-size:22.578px;font-family:Ubuntu;font-variant-ligatures:normal;font-variant-caps:normal;font-variant-numeric:normal;font-variant-east-asian:normal;text-align:center;text-anchor:middle;stroke:#000000"
       id="path25" />
    <path
       d="m 1.7949928,-5.9605918 q 0,1.399836 -0.4064039,2.5738919 -0.40640402,1.151478 -1.17405599,1.986864 -0.76765197,0.81280792 -1.85139591,1.26436791 -1.061166,0.45155998 -2.3932679,0.45155998 -1.309524,0 -2.3932679,-0.45155998 -1.061166,-0.45155999 -1.828818,-1.26436791 -0.7676519,-0.835386 -1.1966339,-1.986864 -0.428982,-1.1740559 -0.428982,-2.5738919 0,-1.3998359 0.428982,-2.5513139 0.45156,-1.1514779 1.2192119,-1.9642863 0.79023,-0.812808 1.851396,-1.264368 1.0837439,-0.45156 2.3481119,-0.45156 1.2869459,0 2.3481119,0.45156 1.08374394,0.45156 1.85139591,1.264368 0.76765197,0.8128084 1.19663399,1.9642863 0.4289819,1.151478 0.4289819,2.5513139 z m -3.4318558,0 q 0,-1.5578819 -0.632184,-2.4384239 -0.609606,-0.9031199 -1.7610839,-0.9031199 -1.151478,0 -1.783662,0.9031199 -0.6321839,0.880542 -0.6321839,2.4384239 0,1.557882 0.6321839,2.4835799 0.632184,0.90312 1.783662,0.90312 1.1514779,0 1.7610839,-0.90312 0.632184,-0.9256979 0.632184,-2.4835799 z"
       style="font-weight:bold;font-size:22.578px;font-family:Ubuntu;font-variant-ligatures:normal;font-variant-caps:normal;font-variant-numeric:normal;font-variant-east-asian:normal;text-align:center;text-anchor:middle;stroke:#000000"
       id="path27" />
    <path
       d="m 8.8006495,-7.5862077 q 0.496716,-0.541872 1.01601,-1.1289 0.5418715,-0.5870279 1.0385875,-1.1514779 0.496716,-0.5870284 0.925698,-1.1063224 0.45156,-0.519294 0.767652,-0.90312 h 3.996306 q -1.196634,1.377258 -2.348112,2.6416264 -1.1289,1.2417899 -2.48358,2.5738919 0.67734,0.6096059 1.399836,1.4675699 0.722496,0.835386 1.399836,1.7385059 0.67734,0.90312 1.24179,1.80624 Q 16.319123,-0.74507397 16.702949,0 h -3.860838 q -0.361248,-0.58702798 -0.835386,-1.2869459 -0.45156,-0.722496 -0.970854,-1.422414 -0.519294,-0.722496 -1.1063215,-1.3772579 -0.56445,-0.654762 -1.1289,-1.106322 V 0 H 5.4365276 v -16.978655 l 3.3641219,-0.541872 z"
       style="font-weight:bold;font-size:22.578px;font-family:Ubuntu;font-variant-ligatures:normal;font-variant-caps:normal;font-variant-numeric:normal;font-variant-east-asian:normal;text-align:center;text-anchor:middle;stroke:#000000"
       id="path29" />
    <path
       d="m 18.176971,-5.8477018 q 0,-1.5804599 0.474138,-2.7545159 0.496716,-1.1966339 1.286946,-1.9868643 0.79023,-0.79023 1.80624,-1.196634 1.038588,-0.406404 2.122332,-0.406404 2.528736,0 3.996306,1.557882 1.46757,1.5353044 1.46757,4.5381782 0,0.293514 -0.02258,0.654762 -0.02258,0.33867 -0.04516,0.609606 h -7.631364 q 0.11289,1.0385879 0.970854,1.6481939 0.857964,0.609606 2.302956,0.609606 0.925698,0 1.80624,-0.158046 0.90312,-0.180624 1.46757,-0.428982 l 0.45156,2.73193792 q -0.270936,0.13546799 -0.722496,0.27093599 -0.45156,0.13546799 -1.01601,0.22577999 -0.541872,0.11288999 -1.174056,0.18062399 -0.632184,0.067734 -1.264368,0.067734 -1.603038,0 -2.799672,-0.47413798 -1.174056,-0.47413799 -1.964286,-1.28694591 -0.767652,-0.835386 -1.151478,-1.964286 -0.361248,-1.1288999 -0.361248,-2.4384239 z m 7.9023,-1.2869459 q -0.02258,-0.428982 -0.158046,-0.835386 -0.11289,-0.406404 -0.383826,-0.722496 -0.248358,-0.3160919 -0.654762,-0.5192939 -0.383826,-0.203202 -0.970854,-0.203202 -0.56445,0 -0.970854,0.203202 -0.406404,0.180624 -0.67734,0.4967159 -0.270936,0.316092 -0.428982,0.745074 -0.135468,0.406404 -0.203202,0.835386 z"
       style="font-weight:bold;font-size:22.578px;font-family:Ubuntu;font-variant-ligatures:normal;font-variant-caps:normal;font-variant-numeric:normal;font-variant-east-asian:normal;text-align:center;text-anchor:middle;stroke:#000000"
       id="path31" />
    <path
       d="M -39.121257,20.320199 V 4.6736453 h 10.476192 v 2.9577179 h -6.954024 v 3.2738098 h 6.186372 v 2.957718 h -6.186372 v 6.457308 z"
       style="font-weight:bold;font-size:22.578px;font-family:Ubuntu;font-variant-ligatures:normal;font-variant-caps:normal;font-variant-numeric:normal;font-variant-east-asian:normal;text-align:center;text-anchor:middle;stroke:#000000"
       id="path33" />
    <path
       d="m -21.345877,17.972087 q 0.496715,0 0.948275,-0.02258 0.45156,-0.02258 0.722496,-0.06773 v -2.551314 q -0.203202,-0.04516 -0.609606,-0.09031 -0.406404,-0.04516 -0.745073,-0.04516 -0.474138,0 -0.90312,0.06773 -0.406404,0.04516 -0.722496,0.203202 -0.316092,0.158046 -0.496716,0.428982 -0.180624,0.270936 -0.180624,0.67734 0,0.79023 0.519294,1.106322 0.541872,0.293514 1.46757,0.293514 z m -0.270936,-9.8440079 q 1.490147,0 2.483579,0.33867 0.993432,0.33867 1.58046,0.970854 0.609606,0.6321839 0.857964,1.5353039 0.248358,0.90312 0.248358,2.009442 v 6.99918 q -0.722496,0.158046 -2.009442,0.361248 -1.286946,0.22578 -3.115763,0.22578 -1.151478,0 -2.099754,-0.203202 -0.925698,-0.203202 -1.603038,-0.654762 -0.67734,-0.474138 -1.038588,-1.219212 -0.361248,-0.745074 -0.361248,-1.828818 0,-1.038588 0.406404,-1.761084 0.428982,-0.722496 1.1289,-1.151478 0.699918,-0.428982 1.603038,-0.609606 0.90312,-0.203202 1.873974,-0.203202 0.654762,0 1.151477,0.06773 0.519294,0.04516 0.835386,0.135468 v -0.316092 q 0,-0.857964 -0.519294,-1.377258 -0.519294,-0.519294 -1.806239,-0.519294 -0.857964,0 -1.69335,0.135468 -0.835386,0.11289 -1.444992,0.33867 l -0.428982,-2.7093599 q 0.293514,-0.090312 0.722496,-0.180624 0.45156,-0.11289 0.970854,-0.180624 0.519294,-0.090312 1.083744,-0.135468 0.587028,-0.067734 1.174056,-0.067734 z"
       style="font-weight:bold;font-size:22.578px;font-family:Ubuntu;font-variant-ligatures:normal;font-variant-caps:normal;font-variant-numeric:normal;font-variant-east-asian:normal;text-align:center;text-anchor:middle;stroke:#000000"
       id="path35" />
    <path
       d="m -12.917782,14.382185 q 0,-1.286946 0.406404,-2.415846 0.428982,-1.151478 1.219212,-1.9868639 0.79023,-0.857964 1.9191301,-1.35468 1.1289,-0.496716 2.5738919,-0.496716 0.948276,0 1.738506,0.180624 0.7902299,0.158046 1.5353039,0.474138 l -0.699918,2.6867819 Q -4.69939,11.288999 -5.26384,11.153531 q -0.56445,-0.135468 -1.264368,-0.135468 -1.4901479,0 -2.2352219,0.925698 -0.7224959,0.925698 -0.7224959,2.438424 0,1.603038 0.6773399,2.48358 0.699918,0.880542 2.4158459,0.880542 0.609606,0 1.309524,-0.11289 0.699918,-0.11289 1.2869459,-0.361248 l 0.474138,2.754516 q -0.587028,0.248358 -1.4675699,0.428982 -0.880542,0.180624 -1.941708,0.180624 -1.6256159,0 -2.7996718,-0.474138 -1.1740562,-0.496716 -1.9417082,-1.332102 -0.745074,-0.835386 -1.106322,-1.964286 -0.33867,-1.151478 -0.33867,-2.48358 z"
       style="font-weight:bold;font-size:22.578px;font-family:Ubuntu;font-variant-ligatures:normal;font-variant-caps:normal;font-variant-numeric:normal;font-variant-east-asian:normal;text-align:center;text-anchor:middle;stroke:#000000"
       id="path37" />
    <path
       d="M -0.13216487,5.4864532 3.231957,4.9445813 V 8.4441711 H 7.2734188 V 11.243843 H 3.231957 v 4.17693 q 0,1.061166 0.361248,1.69335 0.383826,0.632184 1.5127259,0.632184 0.541872,0 1.106322,-0.09031 0.587028,-0.11289 1.0611659,-0.293514 l 0.474138,2.619048 q -0.609606,0.248358 -1.3546799,0.428982 -0.745074,0.180624 -1.828818,0.180624 -1.3772579,0 -2.2803779,-0.361248 -0.9031199,-0.383828 -1.44499191,-1.03859 -0.54187198,-0.67734 -0.76765197,-1.625616 -0.20320199,-0.948276 -0.20320199,-2.099754 z"
       style="font-weight:bold;font-size:22.578px;font-family:Ubuntu;font-variant-ligatures:normal;font-variant-caps:normal;font-variant-numeric:normal;font-variant-east-asian:normal;text-align:center;text-anchor:middle;stroke:#000000"
       id="path39" />
    <path
       d="m 21.707223,14.359607 q 0,1.399836 -0.406404,2.573892 -0.406404,1.151478 -1.174056,1.986864 -0.767652,0.812808 -1.851396,1.264368 -1.061166,0.45156 -2.393268,0.45156 -1.309524,0 -2.393268,-0.45156 -1.061166,-0.45156 -1.828818,-1.264368 -0.767652,-0.835386 -1.196634,-1.986864 -0.428982,-1.174056 -0.428982,-2.573892 0,-1.399836 0.428982,-2.551314 0.45156,-1.151478 1.219212,-1.9642859 0.79023,-0.812808 1.851396,-1.264368 1.083744,-0.45156 2.348112,-0.45156 1.286946,0 2.348112,0.45156 1.083744,0.45156 1.851396,1.264368 0.767652,0.8128079 1.196634,1.9642859 0.428982,1.151478 0.428982,2.551314 z m -3.431856,0 q 0,-1.557882 -0.632184,-2.438424 -0.609606,-0.90312 -1.761084,-0.90312 -1.151478,0 -1.783662,0.90312 -0.632184,0.880542 -0.632184,2.438424 0,1.557882 0.632184,2.48358 0.632184,0.90312 1.783662,0.90312 1.151478,0 1.761084,-0.90312 0.632184,-0.925698 0.632184,-2.48358 z"
       style="font-weight:bold;font-size:22.578px;font-family:Ubuntu;font-variant-ligatures:normal;font-variant-caps:normal;font-variant-numeric:normal;font-variant-east-asian:normal;text-align:center;text-anchor:middle;stroke:#000000"
       id="path41" />
    <path
       d="m 32.505981,11.424467 q -0.45156,-0.11289 -1.061166,-0.22578 -0.609606,-0.135468 -1.309524,-0.135468 -0.316092,0 -0.767651,0.06773 -0.428982,0.04516 -0.654762,0.11289 v 9.076356 H 25.348756 V 9.0763551 q 0.90312,-0.316092 2.122332,-0.587028 1.24179,-0.293514 2.754515,-0.293514 0.270936,0 0.654762,0.045156 0.383826,0.022578 0.767652,0.090312 0.383826,0.045156 0.767652,0.135468 0.383826,0.067734 0.654762,0.180624 z"
       style="font-weight:bold;font-size:22.578px;font-family:Ubuntu;font-variant-ligatures:normal;font-variant-caps:normal;font-variant-numeric:normal;font-variant-east-asian:normal;text-align:center;text-anchor:middle;stroke:#000000"
       id="path43" />
    <path
       d="m 47.165554,8.4441711 q -1.01601,3.4318559 -2.122332,6.4347299 -1.106322,3.002874 -2.415846,5.825124 -0.474138,1.01601 -0.948276,1.715928 -0.474138,0.722496 -1.038588,1.174056 -0.56445,0.474138 -1.286946,0.67734 -0.699917,0.22578 -1.648193,0.22578 -0.79023,0 -1.46757,-0.158046 -0.654762,-0.135468 -1.083744,-0.316092 l 0.587028,-2.686782 q 0.519294,0.180624 0.925698,0.248358 0.406404,0.06773 0.857964,0.06773 0.90312,0 1.377258,-0.496716 0.496715,-0.474138 0.835385,-1.332102 -1.151477,-2.2578 -2.302955,-5.057472 -1.151478,-2.82225 -2.167488,-6.3218399 h 3.567324 q 0.225779,0.880542 0.519293,1.9191299 0.316092,1.01601 0.654762,2.077176 0.33867,1.038588 0.67734,2.03202 0.361248,0.993432 0.67734,1.80624 0.293514,-0.812808 0.609606,-1.80624 0.316092,-0.993432 0.609606,-2.03202 0.316092,-1.061166 0.587028,-2.077176 0.293514,-1.0385879 0.519294,-1.9191299 z"
       style="font-weight:bold;font-size:22.578px;font-family:Ubuntu;font-variant-ligatures:normal;font-variant-caps:normal;font-variant-numeric:normal;font-variant-east-asian:normal;text-align:center;text-anchor:middle;stroke:#000000"
       id="path45" />
  </g>
</svg>
